<svg xmlns="http://www.w3.org/2000/svg" version="1.1" xmlns:xlink="http://www.w3.org/1999/xlink" xmlns:svgjs="http://svgjs.com/svgjs" width="512" height="512" x="0" y="0" viewBox="0 0 152 152" style="enable-background:new 0 0 512 512" xml:space="preserve" class=""><g><g id="Layer_2" data-name="Layer 2"><g id="_01.Add" data-name="01.Add"><path d="m117 0h-82a35.1 35.1 0 0 0 -35 35v82a35.1 35.1 0 0 0 35 35h82a35.1 35.1 0 0 0 35-35v-82a35.1 35.1 0 0 0 -35-35zm-9.79 82.55h-23.07a1.34 1.34 0 0 0 -1.35 1.35v23.1a6.79 6.79 0 0 1 -13.58 0v-23.1a1.34 1.34 0 0 0 -1.35-1.35h-23.07a6.79 6.79 0 1 1 0-13.58h23.07a1.34 1.34 0 0 0 1.35-1.35v-23.07a6.79 6.79 0 0 1 13.58 0v23.07a1.34 1.34 0 0 0 1.35 1.38h23.07a6.79 6.79 0 0 1 0 13.58z" fill="#000000" data-original="#000000" class=""></path></g></g></g></svg>