<svg xmlns="http://www.w3.org/2000/svg" version="1.1" xmlns:xlink="http://www.w3.org/1999/xlink" xmlns:svgjs="http://svgjs.com/svgjs" width="512" height="512" x="0" y="0" viewBox="0 0 512 512" style="enable-background:new 0 0 512 512" xml:space="preserve" class=""><g><g id="_x39__Coin"><g id="XMLID_1581_"><g id="XMLID_1621_"><g id="XMLID_1733_"><g id="XMLID_1737_"><circle id="XMLID_3498_" cx="256" cy="256" fill="#ffeb82" r="184.638" data-original="#ffeb82" class=""></circle></g><g id="XMLID_1734_"><path id="XMLID_4911_" d="m256 11.479c135.045 0 244.521 109.475 244.521 244.521s-109.476 244.521-244.521 244.521-244.521-109.476-244.521-244.521 109.476-244.521 244.521-244.521zm184.638 244.521c0-101.97-82.668-184.638-184.638-184.638s-184.638 82.668-184.638 184.638 82.668 184.638 184.638 184.638 184.638-82.668 184.638-184.638z" fill="#ffcb37" data-original="#ffcb37" class=""></path></g></g><g id="XMLID_1727_"><g id="XMLID_1732_"><path id="XMLID_2506_" d="m256 510.501c-67.98 0-131.891-26.473-179.96-74.541s-74.541-111.98-74.541-179.96 26.472-131.891 74.541-179.96 111.98-74.541 179.96-74.541 131.891 26.472 179.96 74.541 74.541 111.98 74.541 179.96-26.473 131.891-74.541 179.96-111.98 74.541-179.96 74.541zm0-489.041c-129.326 0-234.54 105.214-234.54 234.54s105.215 234.54 234.54 234.54 234.54-105.214 234.54-234.54-105.214-234.54-234.54-234.54z" fill="#000000" data-original="#000000" class=""></path></g><g id="XMLID_1731_"><path id="XMLID_2503_" d="m256 450.619c-107.313 0-194.619-87.305-194.619-194.619s87.306-194.619 194.619-194.619 194.619 87.306 194.619 194.619-87.306 194.619-194.619 194.619zm0-369.277c-96.306 0-174.658 78.351-174.658 174.658s78.352 174.658 174.658 174.658 174.658-78.352 174.658-174.658-78.352-174.658-174.658-174.658z" fill="#000000" data-original="#000000" class=""></path></g><g id="XMLID_1730_"><path id="XMLID_2502_" d="m295.922 335.844h-79.844c-5.512 0-9.98-4.469-9.98-9.98s4.469-9.98 9.98-9.98h69.863v-49.904h-69.863c-5.512 0-9.98-4.469-9.98-9.98v-69.863c0-5.512 4.469-9.98 9.98-9.98h79.844c5.512 0 9.98 4.468 9.98 9.98s-4.469 9.98-9.98 9.98h-69.863v49.902h69.863c5.512 0 9.98 4.468 9.98 9.98v69.863c0 5.513-4.469 9.982-9.98 9.982z" fill="#000000" data-original="#000000" class=""></path></g><g id="XMLID_1729_"><path id="XMLID_2501_" d="m256 196.117c-5.512 0-9.98-4.468-9.98-9.98v-39.922c0-5.512 4.469-9.98 9.98-9.98s9.98 4.468 9.98 9.98v39.922c0 5.512-4.468 9.98-9.98 9.98z" fill="#000000" data-original="#000000" class=""></path></g><g id="XMLID_1728_"><path id="XMLID_2500_" d="m256 375.765c-5.512 0-9.98-4.469-9.98-9.98v-39.922c0-5.512 4.469-9.98 9.98-9.98s9.98 4.469 9.98 9.98v39.922c0 5.512-4.468 9.98-9.98 9.98z" fill="#000000" data-original="#000000" class=""></path></g></g></g></g></g></g></svg>