<svg xmlns="http://www.w3.org/2000/svg" version="1.1" xmlns:xlink="http://www.w3.org/1999/xlink" xmlns:svgjs="http://svgjs.com/svgjs" width="512" height="512" x="0" y="0" viewBox="0 0 32 32" style="enable-background:new 0 0 512 512" xml:space="preserve" class=""><g><g id="Dollar"><path d="M21,13a1,1,0,0,0,1-1v-.8262a5.17,5.17,0,0,0-5-5.1562V4a1,1,0,0,0-2,0V6.0176a5.1648,5.1648,0,0,0-1.7476,9.96l4.7525,1.9019A3.1738,3.1738,0,0,1,16.8262,24H15.1738A3.1774,3.1774,0,0,1,12,20.8262V20a1,1,0,0,0-2,0v.8262a5.17,5.17,0,0,0,5,5.1562V28a1,1,0,0,0,2,0V25.9824a5.1648,5.1648,0,0,0,1.7476-9.96l-4.7525-1.9019A3.1738,3.1738,0,0,1,15.1738,8h1.6524A3.1774,3.1774,0,0,1,20,11.1738V12A1,1,0,0,0,21,13Z" fill="#000000" data-original="#000000" class=""></path></g></g></svg>