<svg width="323" height="199" viewBox="0 0 323 199" fill="none" xmlns="http://www.w3.org/2000/svg">
<g clip-path="url(#clip0_19_54)">
<path opacity="0.1" d="M323 127.604C323.005 132.987 322.354 138.351 321.061 143.576C320.626 145.337 320.12 147.061 319.545 148.748C318.84 150.831 318.023 152.874 317.098 154.869C316.632 155.878 316.139 156.867 315.62 157.836C315.629 163.356 314.492 168.818 312.283 173.876C308.289 182.952 301.166 190.29 292.214 194.554C286.617 197.224 280.5 198.629 274.298 198.667H61.3162C51.8402 198.687 42.5278 196.198 34.3259 191.452L34.1998 191.381C33.0315 190.697 31.8925 189.973 30.7828 189.209C28.2859 187.484 25.9401 185.55 23.7706 183.428C20.8342 180.558 18.2467 177.352 16.0618 173.876C10.9303 165.728 8.21192 156.293 8.22145 146.664C3.02469 137.546 -0.00561523 126.623 -0.00561523 114.885C-0.00561523 100.077 4.80996 86.5679 12.7217 76.3417C14.3711 74.2052 16.1778 72.1949 18.1268 70.3277C20.0499 68.4799 22.1168 66.788 24.3081 65.268C26.0613 64.0506 27.8936 62.9512 29.7928 61.9772C30.5854 61.5741 31.3806 61.1929 32.1896 60.8391C32.8999 60.5238 33.6184 60.2303 34.3451 59.9533C35.2172 59.6224 36.1002 59.318 36.9942 59.0401C37.8882 58.7622 38.7704 58.5191 39.6406 58.3107C40.9204 57.9981 42.2221 57.7439 43.5457 57.5483C44.6427 57.3865 45.7396 57.2741 46.8365 57.189C47.7086 57.1232 48.5889 57.0876 49.4747 57.0766H49.9546C50.9309 57.0766 51.9017 57.115 52.8642 57.1808C52.9657 56.9779 53.0754 56.7722 53.1769 56.572C53.5608 55.8398 53.9584 55.1103 54.3588 54.3973C54.3579 54.391 54.3579 54.3845 54.3588 54.3781C54.4274 54.252 54.4959 54.1286 54.5672 54.0079C54.8908 53.4238 55.2282 52.8452 55.5737 52.272C55.7327 51.9978 55.8891 51.74 56.0509 51.4822C56.0851 51.4181 56.1226 51.3559 56.1633 51.2957C56.3278 51.0215 56.4951 50.7473 56.6651 50.473C57.5116 49.1201 58.3919 47.791 59.306 46.4856L59.5391 46.1511C59.6817 45.9481 59.8134 45.7507 59.9724 45.5478C60.3509 45.0185 60.7403 44.4865 61.1324 43.9654C61.4067 43.5925 61.6809 43.2222 61.9771 42.8685C62.6901 41.9544 63.4214 41.0402 64.171 40.1261C64.9205 39.212 65.6994 38.3098 66.5075 37.4194C66.6171 37.296 66.7268 37.1753 66.842 37.0547L68.013 35.7767C68.0706 35.7164 68.12 35.6616 68.1748 35.6067C68.3147 35.4559 68.449 35.3051 68.5999 35.1597C69.2279 34.4933 69.8723 33.8406 70.5195 33.1907C73.8132 29.9102 77.3221 26.853 81.0227 24.0395C81.1681 23.9243 81.3162 23.8146 81.4615 23.7049C82.1581 23.1811 82.8656 22.6628 83.5731 22.1527C87.4648 19.3609 91.5329 16.8235 95.7519 14.5564C96.0426 14.3891 96.3388 14.2328 96.6377 14.0792C100.42 12.0782 104.31 10.2874 108.29 8.71519C110.459 7.85684 112.678 7.05058 114.91 6.31289C116.396 5.82475 117.888 5.36129 119.399 4.92526C121.761 4.24515 124.14 3.63544 126.535 3.09611C133.591 1.51291 140.769 0.534904 147.991 0.172757C150.185 0.0612349 152.403 0.00364615 154.647 -1.03183e-05C165.471 -0.0143402 176.253 1.34952 186.732 4.05867C186.841 4.22242 186.989 4.3559 187.163 4.44658C187.337 4.53725 187.531 4.58212 187.728 4.57698H188.649C189.05 4.68667 189.447 4.79637 189.848 4.91155C192.084 5.55509 194.287 6.25804 196.459 7.02042L197.008 7.21787C202.369 9.12406 207.584 11.4153 212.615 14.0738C217.149 16.4644 221.515 19.1618 225.682 22.1472C226.324 22.608 226.956 23.0723 227.58 23.5404C228.337 23.0559 229.106 22.5915 229.889 22.1472C232.911 20.4262 236.12 19.058 239.454 18.0694C246.425 16.0066 253.8 15.7182 260.91 17.2302C270.029 19.1636 278.283 23.9627 284.95 30.7884C287.664 33.5812 290.08 36.6491 292.159 39.9424C292.31 40.1782 292.461 40.4168 292.606 40.6581C294.393 43.573 295.929 46.6344 297.197 49.8094C297.244 49.9273 297.29 50.037 297.331 50.1522C298.502 53.1252 299.446 56.1825 300.156 59.2979C300.189 59.457 300.227 59.6133 300.26 59.7724C300.924 62.7874 301.375 65.8453 301.61 68.9236C301.61 69.0333 301.61 69.1457 301.631 69.2609C301.747 70.8533 301.805 72.4621 301.807 74.0874C301.807 75.5409 301.758 76.9834 301.667 78.4149C301.667 78.5712 301.645 78.733 301.631 78.8948C301.607 79.3089 301.571 79.7175 301.535 80.1343C303.63 81.8238 305.59 83.6731 307.399 85.6657C308.198 86.5377 308.971 87.4427 309.719 88.3806C311.996 91.2352 313.998 94.2993 315.697 97.5318C320.334 106.285 323 116.583 323 127.604Z" fill="#6C63FF"/>
<path opacity="0.1" d="M292.011 193.539C292.011 195.412 285.559 197.167 274.299 198.675H61.3164C51.8404 198.696 42.528 196.206 34.3261 191.46L34.2 191.389C37.4359 190.21 43.2771 189.11 51.2272 188.117L51.5837 188.073C55.1488 187.637 59.1334 187.223 63.4883 186.831C63.598 186.831 63.7104 186.815 63.8201 186.801C67.2755 186.494 70.9512 186.206 74.8471 185.937C74.9705 185.937 75.0912 185.915 75.2146 185.91C76.7174 185.802 78.2513 185.7 79.8163 185.603L80.4196 185.564C91.8141 184.857 104.766 184.292 118.813 183.919H118.829C120.796 183.864 122.784 183.816 124.794 183.773C127.028 183.72 129.289 183.674 131.578 183.634C133.325 183.595 135.094 183.568 136.868 183.54H136.909C144.914 183.42 153.185 183.359 161.643 183.359C182.556 183.359 202.323 183.741 219.838 184.426H219.888C222.581 184.53 225.224 184.646 227.802 184.763L229.996 184.868C232.905 185.007 235.738 185.156 238.497 185.315C270.939 187.16 292.011 190.158 292.011 193.539Z" fill="#6C63FF"/>
<g opacity="0.2">
<path d="M186.557 182.101C186.548 182.396 186.514 182.691 186.455 182.981C184.547 182.677 182.627 182.403 180.697 182.158C180.697 182.081 180.697 182.002 180.697 181.922C180.714 181.1 180.951 180.297 181.382 179.597C181.947 178.703 182.805 178.143 183.752 178.174C184.698 178.204 185.518 178.815 186.025 179.739C186.409 180.465 186.592 181.28 186.557 182.101Z" fill="#3F3D56"/>
<path d="M186.715 177.414C186.782 175.294 185.523 173.533 183.903 173.482C182.283 173.43 180.916 175.108 180.849 177.229C180.782 179.35 182.041 181.111 183.66 181.162C185.28 181.213 186.648 179.535 186.715 177.414Z" fill="#3F3D56"/>
<path d="M186.864 172.719C186.931 170.599 185.673 168.838 184.053 168.787C182.433 168.735 181.066 170.413 180.999 172.534C180.932 174.655 182.19 176.416 183.81 176.467C185.43 176.518 186.797 174.84 186.864 172.719Z" fill="#3F3D56"/>
<path d="M187.011 168.024C187.078 165.903 185.819 164.143 184.199 164.092C182.58 164.04 181.212 165.718 181.145 167.839C181.078 169.96 182.337 171.721 183.957 171.772C185.577 171.823 186.944 170.145 187.011 168.024Z" fill="#3F3D56"/>
<path d="M187.158 163.329C187.225 161.209 185.966 159.448 184.346 159.397C182.727 159.345 181.359 161.023 181.292 163.144C181.225 165.265 182.484 167.026 184.104 167.077C185.724 167.128 187.091 165.45 187.158 163.329Z" fill="#3F3D56"/>
<path d="M174.244 130.753C173.858 130.23 173.509 129.68 173.202 129.107L180.952 128.084L172.609 127.884C171.865 126.118 171.488 124.219 171.503 122.303C171.518 120.387 171.923 118.494 172.694 116.739L183.697 122.896L173.619 114.987C174.635 113.343 175.98 111.926 177.569 110.824C179.158 109.723 180.957 108.961 182.853 108.586C184.75 108.212 186.704 108.232 188.592 108.646C190.48 109.06 192.263 109.859 193.829 110.993C195.395 112.127 196.71 113.572 197.692 115.237C198.674 116.902 199.303 118.752 199.538 120.671C199.773 122.59 199.61 124.536 199.06 126.39C198.509 128.243 197.582 129.962 196.336 131.441C196.937 132.254 197.447 133.131 197.858 134.055L187.687 138.936L198.473 135.692C199.152 137.933 199.261 140.308 198.791 142.602C198.321 144.896 197.286 147.037 195.78 148.83C197.345 150.955 198.282 153.477 198.482 156.109C198.682 158.741 198.137 161.376 196.91 163.712C195.682 166.049 193.822 167.993 191.542 169.323C189.262 170.652 186.654 171.313 184.016 171.23C181.378 171.147 178.817 170.323 176.625 168.852C174.433 167.382 172.699 165.324 171.622 162.915C170.544 160.506 170.167 157.842 170.532 155.228C170.897 152.614 171.99 150.156 173.687 148.134C171.816 145.595 170.853 142.501 170.953 139.348C171.052 136.196 172.208 133.169 174.236 130.753H174.244Z" fill="#6C63FF"/>
<path opacity="0.1" d="M199.07 140.236C198.974 143.39 197.815 146.419 195.78 148.83C197.345 150.955 198.282 153.477 198.482 156.109C198.682 158.741 198.137 161.376 196.91 163.712C195.682 166.049 193.822 167.993 191.542 169.323C189.262 170.652 186.654 171.313 184.016 171.23C181.378 171.147 178.817 170.323 176.625 168.852C174.433 167.382 172.699 165.324 171.622 162.915C170.544 160.506 170.167 157.842 170.532 155.228C170.897 152.614 171.99 150.156 173.687 148.134C171.885 145.685 199.12 138.659 199.07 140.236Z" fill="black"/>
</g>
<g opacity="0.2">
<path d="M144.873 182.101C144.864 182.396 144.83 182.691 144.772 182.981C142.863 182.677 140.943 182.403 139.013 182.158C139.013 182.081 139.013 182.002 139.013 181.922C139.031 181.1 139.267 180.297 139.698 179.597C140.263 178.703 141.122 178.143 142.068 178.174C143.014 178.204 143.834 178.815 144.341 179.739C144.725 180.465 144.908 181.28 144.873 182.101Z" fill="#3F3D56"/>
<path d="M145.028 177.416C145.095 175.295 143.836 173.534 142.216 173.483C140.596 173.432 139.229 175.109 139.162 177.23C139.095 179.351 140.354 181.112 141.973 181.163C143.593 181.214 144.961 179.536 145.028 177.416Z" fill="#3F3D56"/>
<path d="M145.177 172.72C145.244 170.6 143.986 168.839 142.366 168.788C140.746 168.736 139.379 170.414 139.312 172.535C139.245 174.656 140.503 176.417 142.123 176.468C143.743 176.519 145.11 174.841 145.177 172.72Z" fill="#3F3D56"/>
<path d="M145.324 168.026C145.391 165.905 144.132 164.144 142.513 164.093C140.893 164.042 139.526 165.719 139.459 167.84C139.391 169.961 140.65 171.722 142.27 171.773C143.89 171.824 145.257 170.146 145.324 168.026Z" fill="#3F3D56"/>
<path d="M145.471 163.33C145.538 161.21 144.279 159.449 142.66 159.398C141.04 159.346 139.673 161.024 139.605 163.145C139.538 165.266 140.797 167.027 142.417 167.078C144.037 167.129 145.404 165.451 145.471 163.33Z" fill="#3F3D56"/>
<path d="M132.56 130.753C132.174 130.23 131.826 129.68 131.518 129.107L139.268 128.084L130.926 127.884C130.181 126.118 129.805 124.219 129.819 122.303C129.834 120.387 130.239 118.494 131.011 116.739L142.013 122.896L131.935 114.987C132.951 113.343 134.296 111.926 135.885 110.824C137.474 109.723 139.273 108.961 141.17 108.586C143.066 108.212 145.02 108.232 146.908 108.646C148.797 109.06 150.579 109.859 152.145 110.993C153.711 112.127 155.026 113.572 156.008 115.237C156.99 116.902 157.619 118.752 157.854 120.671C158.089 122.59 157.927 124.536 157.376 126.39C156.825 128.243 155.898 129.962 154.652 131.441C155.253 132.254 155.763 133.131 156.174 134.055L146.003 138.936L156.789 135.692C157.468 137.933 157.577 140.308 157.107 142.602C156.637 144.896 155.602 147.037 154.096 148.83C155.662 150.955 156.598 153.477 156.798 156.109C156.998 158.741 156.453 161.376 155.226 163.712C153.999 166.049 152.139 167.993 149.859 169.323C147.578 170.652 144.97 171.313 142.332 171.23C139.694 171.147 137.133 170.323 134.941 168.852C132.749 167.382 131.015 165.324 129.938 162.915C128.86 160.506 128.483 157.842 128.848 155.228C129.213 152.614 130.307 150.156 132.003 148.134C130.132 145.595 129.169 142.501 129.269 139.348C129.368 136.196 130.525 133.169 132.552 130.753H132.56Z" fill="#6C63FF"/>
<path opacity="0.1" d="M157.387 140.236C157.291 143.39 156.131 146.419 154.096 148.83C155.662 150.955 156.598 153.477 156.798 156.109C156.998 158.741 156.453 161.376 155.226 163.712C153.999 166.049 152.139 167.993 149.859 169.323C147.578 170.652 144.97 171.313 142.332 171.23C139.694 171.147 137.133 170.323 134.941 168.852C132.749 167.382 131.015 165.324 129.938 162.915C128.86 160.506 128.483 157.842 128.848 155.228C129.213 152.614 130.307 150.156 132.003 148.134C130.202 145.685 157.436 138.659 157.387 140.236Z" fill="black"/>
</g>
<g opacity="0.2">
<path d="M258.736 185.101C258.715 185.661 258.648 186.219 258.535 186.768C254.861 186.181 251.159 185.656 247.432 185.194C247.432 185.046 247.432 184.895 247.432 184.741C247.466 183.158 247.923 181.612 248.753 180.263C249.85 178.544 251.496 177.466 253.314 177.521C255.132 177.576 256.715 178.758 257.702 180.537C258.446 181.939 258.803 183.515 258.736 185.101Z" fill="#3F3D56"/>
<path d="M259.034 176.072C259.163 171.988 256.738 168.597 253.619 168.498C250.499 168.4 247.865 171.631 247.736 175.715C247.607 179.799 250.031 183.19 253.151 183.289C256.271 183.387 258.905 180.156 259.034 176.072Z" fill="#3F3D56"/>
<path d="M259.319 167.033C259.448 162.949 257.024 159.558 253.904 159.459C250.784 159.361 248.15 162.592 248.021 166.676C247.892 170.76 250.316 174.151 253.436 174.25C256.556 174.348 259.19 171.117 259.319 167.033Z" fill="#3F3D56"/>
<path d="M259.607 157.994C259.736 153.91 257.311 150.519 254.191 150.42C251.071 150.322 248.437 153.553 248.308 157.637C248.179 161.721 250.604 165.112 253.724 165.211C256.844 165.309 259.478 162.078 259.607 157.994Z" fill="#3F3D56"/>
<path d="M259.57 148.544C259.693 144.458 257.262 141.069 254.14 140.975C251.019 140.882 248.389 144.118 248.266 148.205C248.144 152.291 250.575 155.68 253.696 155.773C256.818 155.867 259.448 152.63 259.57 148.544Z" fill="#3F3D56"/>
<path d="M235.028 86.2498C234.288 85.2431 233.618 84.1866 233.023 83.0879L247.942 81.1189L231.885 80.7322C230.451 77.333 229.725 73.677 229.753 69.9877C229.78 66.2984 230.56 62.6535 232.044 59.276L253.229 71.1257L233.83 55.9002C235.791 52.7421 238.382 50.0218 241.441 47.9089C244.5 45.796 247.961 44.3358 251.609 43.6192C255.257 42.9027 259.013 42.9451 262.644 43.7439C266.275 44.5427 269.702 46.0808 272.713 48.2623C275.723 50.4437 278.252 53.2218 280.142 56.4234C282.031 59.625 283.241 63.1815 283.696 66.8713C284.151 70.561 283.841 74.3049 282.786 77.8696C281.73 81.4343 279.952 84.7435 277.562 87.5908C278.717 89.1579 279.7 90.8451 280.493 92.623L260.91 102.027L281.673 95.774C282.981 100.083 283.194 104.651 282.293 109.064C281.391 113.476 279.403 117.594 276.509 121.045C279.523 125.135 281.325 129.991 281.709 135.057C282.094 140.123 281.045 145.195 278.682 149.693C276.32 154.191 272.739 157.934 268.35 160.493C263.96 163.052 258.94 164.324 253.861 164.164C248.783 164.004 243.852 162.418 239.633 159.588C235.414 156.757 232.076 152.797 230.001 148.159C227.927 143.521 227.199 138.393 227.902 133.361C228.605 128.329 230.709 123.596 233.975 119.704C230.375 114.816 228.522 108.86 228.713 102.793C228.904 96.726 231.128 90.8988 235.028 86.2471V86.2498Z" fill="#6C63FF"/>
<path opacity="0.1" d="M282.827 104.503C282.647 110.571 280.425 116.402 276.52 121.05C279.534 125.14 281.336 129.996 281.72 135.062C282.105 140.129 281.056 145.201 278.693 149.699C276.33 154.197 272.75 157.939 268.361 160.498C263.971 163.057 258.95 164.329 253.872 164.169C248.794 164.009 243.863 162.423 239.644 159.593C235.425 156.763 232.087 152.802 230.012 148.164C227.938 143.526 227.21 138.398 227.913 133.366C228.616 128.334 230.72 123.601 233.986 119.709C230.492 114.99 282.923 101.467 282.827 104.503Z" fill="black"/>
</g>
<path d="M43.2798 185.583L46.1565 185.575H50.2125L55.3407 102.268L106.126 17.5209L103.919 15.1515V9.15125L48.9949 100.304L43.2798 185.583Z" fill="#F1C0C0"/>
<path opacity="0.1" d="M46.4636 185.575H50.2124L55.3406 102.268L106.126 17.5209L103.919 15.1515L51.5342 100.998L46.4636 185.575Z" fill="black"/>
<path d="M34.8032 186.277L166.395 196.347L166.508 196.355L293.86 188.523L293.956 188.518V183.14L153.629 180.565L36.5556 180.452H35.7L35.6067 181.056L34.8032 186.277Z" fill="#F1C0C0"/>
<path opacity="0.1" d="M34.8032 186.277L166.395 196.347L166.508 196.355L293.86 188.523L293.956 188.419V183.252H293.843L166.395 187.508L36.5556 180.452H36.5364L36.306 180.603L35.6067 181.056L34.8032 186.277Z" fill="black"/>
<path opacity="0.1" d="M34.8032 186.277L166.395 196.347V187.509L36.306 180.603L35.6067 181.056L34.8032 186.277Z" fill="black"/>
<path d="M103.902 15.0391L161.917 77.307L160.123 186.837L165.051 187.432L165.134 187.443H170.062L170.651 82.0102L279.284 118.297L281.116 182.907L285.081 183.351L286.425 183.502L283.315 113.816L169.755 73.9476L107.487 9.21436H103.902V15.0391Z" fill="#F1C0C0"/>
<path opacity="0.1" d="M170.204 79.9945L170.651 82.0101L279.284 118.297L281.116 182.907L285.082 183.351L281.972 116.953L170.204 79.9945Z" fill="black"/>
<path opacity="0.1" d="M103.902 15.0391L161.917 77.307L160.123 186.837L165.051 187.432L166.395 73.7228L103.902 9.21436V15.0391Z" fill="black"/>
<path d="M170.415 123.952L210.259 131.798L210.273 131.8L280.057 145.548L283.252 144.267L283.241 144.042L283.033 139.586L170.456 116.838L170.415 123.952Z" fill="#F1C0C0"/>
<path opacity="0.1" d="M210.273 131.8L280.057 145.548L283.252 144.267L283.241 144.042L210.273 131.8Z" fill="black"/>
<path d="M212.941 96.136L214.019 155.464L214.576 185.901L219.482 185.737L222.57 185.633L221.61 96.9943L219.482 96.2868L219.015 96.136H212.941Z" fill="#F1C0C0"/>
<path opacity="0.1" d="M212.985 96.1223V96.136L214.019 155.464L214.575 185.902L219.482 185.737V96.1223H212.985Z" fill="black"/>
<path d="M136.092 111.288C136.38 111.444 136.655 111.623 136.915 111.822C137.222 112.091 137.498 112.394 137.737 112.725C138.914 114.247 140 116.015 139.885 117.935C139.887 118.214 139.834 118.491 139.729 118.75C139.625 119.009 139.469 119.245 139.273 119.443C138.788 119.857 138.091 119.877 137.455 119.877C136.764 119.877 136.037 119.877 135.439 119.52C134.842 119.164 134.342 118.47 133.635 118.486C133.535 118.503 133.433 118.503 133.333 118.486C133.089 118.407 133.04 118.086 132.881 117.883C132.606 117.518 132.028 117.609 131.597 117.768C131.167 117.927 130.69 118.165 130.265 117.982C130.018 117.851 129.816 117.65 129.686 117.403C128.668 115.758 128.452 113.78 128.26 111.869C128.142 110.706 127.242 106.741 129.724 107.643C130.821 108.038 131.847 108.828 132.845 109.406L136.092 111.288Z" fill="#3F3D56"/>
<path d="M133.64 111.68C133.862 111.839 134.131 111.92 134.404 111.909C134.676 111.898 134.938 111.796 135.146 111.619C135.554 111.25 135.815 110.745 135.878 110.199C136.152 110.114 136.292 110.473 136.468 110.692C136.775 111.065 137.4 111.06 137.68 111.458C137.875 111.732 137.831 112.113 137.968 112.423C138.146 112.823 138.588 113.032 138.889 113.355C139.174 113.709 139.38 114.119 139.493 114.559L139.942 115.908C140.158 116.469 140.296 117.057 140.354 117.655C140.382 117.954 140.351 118.256 140.261 118.543C140.172 118.829 140.026 119.096 139.833 119.325C139.229 119.975 138.239 120.044 137.365 120.025C137.072 120.031 136.781 119.997 136.498 119.923C135.722 119.682 135.226 118.9 135.02 118.113C134.814 117.326 134.836 116.501 134.715 115.694C134.585 114.903 134.355 114.13 134.03 113.396C133.789 112.826 133.125 111.976 133.136 111.37C133.333 111.37 133.476 111.551 133.64 111.68Z" fill="#3F3D56"/>
<path d="M134.625 108.902C134.497 108.512 134.422 108.107 134.403 107.698C134.403 106.875 134.778 106.102 135.157 105.367L132.022 105.792C131.644 105.844 131.222 105.921 131.008 106.236C130.926 106.392 130.884 106.566 130.884 106.742C130.884 106.918 130.926 107.092 131.008 107.248C131.165 107.561 131.29 107.889 131.381 108.227C131.388 108.523 131.422 108.818 131.482 109.107C131.58 109.32 131.716 109.513 131.885 109.675C132.782 110.668 133.454 111.839 134.123 112.999C134.104 112.966 136.012 111.488 135.936 111.005C135.892 110.731 135.341 110.402 135.165 110.138C134.923 109.756 134.74 109.339 134.625 108.902Z" fill="#BE6F72"/>
<path d="M161.5 98.1873V100.888L115.245 109.911L112.845 111.364H104.566V109.842L150.012 98.8619L161.5 98.1873Z" fill="#F1C0C0"/>
<path opacity="0.1" d="M161.5 100.888L115.245 109.911L112.845 111.364H104.566L150.35 101.566L161.5 100.888Z" fill="black"/>
<path d="M124.363 174.869C123.848 174.245 123.136 173.814 122.344 173.645C121.553 173.477 120.727 173.582 120.003 173.942C119.848 174.015 119.711 174.122 119.602 174.255C119.328 174.639 119.504 175.168 119.528 175.642C119.591 176.8 118.67 177.74 117.842 178.549C117.397 178.983 116.945 179.446 116.745 180.036C116.545 180.625 116.693 181.374 117.23 181.681C117.465 181.799 117.72 181.869 117.982 181.889C118.858 182.06 119.757 182.085 120.642 181.963C121.516 181.796 122.375 181.3 122.753 180.494C122.826 180.275 122.947 180.075 123.107 179.909C123.59 179.528 124.33 179.975 124.879 179.704C125.331 179.479 125.35 179.125 125.356 178.659C125.372 177.37 125.18 175.911 124.363 174.869Z" fill="#6C63FF"/>
<path d="M130.945 174.82C131.282 175.708 131.329 176.676 131.372 177.625C131.397 178.173 131.414 178.76 131.117 179.224C130.821 179.687 130.243 179.931 129.689 180.046C128.545 180.282 127.221 180.06 126.483 179.152C125.918 178.459 125.8 177.507 125.904 176.608C125.992 175.87 126.178 175.006 125.649 174.482C125.512 174.342 125.334 174.244 125.208 174.093C124.933 173.758 124.977 173.254 125.125 172.842C125.318 172.449 125.463 172.034 125.556 171.606C125.578 171.403 129.269 171.748 129.609 171.915C130.073 172.143 130.001 172.524 130.141 172.985C130.336 173.627 130.709 174.205 130.945 174.82Z" fill="#6C63FF"/>
<path d="M131.622 135.423C132.346 135.892 132.626 136.813 132.738 137.669C133.048 140.014 132.505 142.383 132.464 144.75C132.426 148.065 133.385 151.441 132.565 154.652C132.075 156.572 132.491 158.766 132.031 160.705C131.894 161.281 131.641 161.824 131.51 162.399C131.235 163.647 131.523 164.953 131.91 166.173C132.034 166.502 132.112 166.846 132.143 167.196C132.125 167.734 131.988 168.262 131.743 168.742L130.097 172.634C129.914 173.07 129.19 173.141 128.726 173.199C127.854 173.303 126.881 173.377 126.187 172.837C125.493 172.297 125.326 171.392 125.219 170.547C125.014 168.925 124.922 167.292 124.944 165.657C124.975 165.231 124.937 164.802 124.832 164.388C124.681 163.919 124.349 163.513 124.259 163.016C124.144 162.375 124.47 161.744 124.591 161.097C124.673 160.506 124.664 159.905 124.563 159.317C124.456 158.439 124.333 157.562 124.193 156.69C123.996 155.469 124.278 154.266 124.467 153.043C124.646 151.893 124.418 150.722 124.193 149.582C124.213 150.508 124.097 151.431 123.85 152.324C123.705 152.76 123.497 153.177 123.37 153.621C122.808 155.615 124.007 157.707 123.837 159.772C123.757 160.738 123.379 161.692 123.486 162.644C123.56 163.34 123.883 163.979 124.105 164.643C124.327 165.306 124.443 166.066 124.105 166.686C123.214 168.37 123.88 170.659 124.678 172.387C124.84 172.693 124.982 173.011 125.101 173.336C125.337 174.115 125.139 174.951 125.202 175.763C124.973 175.801 124.737 175.785 124.515 175.718C124.292 175.651 124.087 175.534 123.916 175.376C123.795 175.25 123.697 175.102 123.579 174.97C123.249 174.656 122.859 174.413 122.432 174.255C122.182 174.114 121.896 174.049 121.61 174.065C121.308 174.15 121.037 174.318 120.828 174.551C120.557 174.789 120.269 175.008 119.967 175.206C119.838 175.305 119.688 175.372 119.528 175.401C119.448 175.413 119.366 175.4 119.294 175.363C119.221 175.326 119.162 175.268 119.125 175.195C119.108 175.149 119.098 175.101 119.095 175.053C118.993 174.225 118.939 173.391 118.933 172.557C118.933 171.123 117.217 170.136 117 168.718C116.827 167.574 117.148 166.409 117.041 165.257C116.989 164.665 116.824 164.083 116.835 163.491C116.835 163.107 116.923 162.731 116.953 162.35C116.978 161.927 116.972 161.503 116.934 161.08L116.849 159.756C116.767 158.448 116.676 157.112 116.161 155.917C115.549 154.52 115.187 153.028 115.091 151.507C115.036 150.547 115.072 149.587 114.962 148.625C114.864 147.755 114.644 146.891 114.707 146.019C114.759 145.345 114.982 144.692 115.034 144.017C115.141 142.72 114.647 141.459 114.26 140.217C113.874 138.974 113.588 137.598 114.096 136.399C114.168 136.202 114.289 136.027 114.447 135.889C114.641 135.76 114.863 135.678 115.094 135.648C119.799 134.659 124.622 134.352 129.415 134.735C130.196 134.779 130.954 135.015 131.622 135.423Z" fill="#3F3D56"/>
<path d="M116.054 106.296C118.48 106.296 120.447 104.329 120.447 101.903C120.447 99.4768 118.48 97.5099 116.054 97.5099C113.627 97.5099 111.66 99.4768 111.66 101.903C111.66 104.329 113.627 106.296 116.054 106.296Z" fill="#BE6F72"/>
<path d="M115.204 107.391C115.267 107.642 115.267 107.905 115.204 108.156C115.134 108.331 115.037 108.494 114.916 108.638C114.49 109.187 114.02 109.699 113.509 110.169C113.769 110.75 114.238 111.213 114.822 111.466C115.403 111.713 116.012 111.887 116.635 111.984C116.946 112.066 117.27 112.088 117.589 112.05C117.884 111.976 118.162 111.85 118.412 111.677L120.853 110.215C121.221 110.016 121.562 109.77 121.867 109.483C122.315 109.023 122.568 108.408 122.575 107.766C122.586 107.651 122.555 107.536 122.487 107.443C122.394 107.361 122.276 107.312 122.153 107.303C121.294 107.114 120.617 106.417 120.233 105.627C119.886 104.818 119.661 103.961 119.567 103.085L116.964 104.456C116.577 104.662 116.194 104.868 115.793 105.046C115.538 105.161 115.023 105.257 114.842 105.49C114.496 105.921 115.113 106.872 115.204 107.391Z" fill="#BE6F72"/>
<path d="M113.525 109.371C113.155 109.674 112.865 110.065 112.683 110.509C112.513 111.057 112.683 111.636 112.837 112.179C113.557 114.493 114.107 116.857 114.482 119.251C114.713 120.897 114.798 122.567 114.91 124.231C115.141 127.626 115.475 133.04 115.922 136.413C117.568 136.487 119.172 136.007 120.804 135.832C123.853 135.508 126.993 136.248 129.979 135.557C129.255 132.697 128.531 127.813 127.807 124.955C127.487 123.829 127.265 122.678 127.144 121.514C127.081 120.677 127.119 119.838 127.13 118.996C127.155 117.351 127.064 115.705 126.974 114.06C126.87 112.14 126.765 110.221 126.31 108.342C126.278 108.103 126.166 107.881 125.992 107.714C125.718 107.514 125.361 107.585 125.035 107.629C124.036 107.756 123.024 107.516 122.188 106.955C121.826 106.708 121.341 106.406 121.004 106.68C120.86 106.846 120.765 107.048 120.729 107.264C120.58 107.652 120.35 108.004 120.054 108.296C119.758 108.588 119.403 108.813 119.013 108.956C118.231 109.239 117.413 109.408 116.583 109.456C116.329 109.51 116.064 109.48 115.829 109.371C115.439 109.132 115.412 108.274 114.921 108.216C114.491 108.167 113.816 109.094 113.525 109.371Z" fill="#3F3D56"/>
<path d="M120.014 116.067C119.002 115.099 118.558 113.695 117.82 112.502C117.318 111.7 116.676 110.994 115.925 110.418C115.547 110.169 115.201 109.875 114.894 109.543C114.633 109.223 114.436 108.795 114.041 108.671C113.878 108.636 113.708 108.64 113.547 108.685C113.386 108.729 113.239 108.812 113.117 108.926C112.875 109.157 112.646 109.4 112.431 109.656C111.268 110.86 109.225 111.027 108.304 112.42C108.055 112.715 107.886 113.069 107.813 113.448C107.548 115.476 108.072 117.528 109.277 119.18C109.511 119.563 109.869 119.853 110.292 120.003C110.235 120.514 110.302 121.032 110.49 121.511C110.997 123.247 111.621 124.946 112.357 126.598C112.181 127.244 112.058 127.904 111.99 128.57C111.798 130.245 111.976 131.946 111.795 133.624C111.647 134.995 111.246 136.331 111.233 137.705C111.233 137.924 111.252 138.185 111.441 138.297C111.542 138.349 111.654 138.372 111.767 138.366L115.141 138.467C117.099 138.525 119.076 138.582 121.004 138.22C121.26 138.182 121.509 138.103 121.741 137.987C122.394 137.622 122.611 136.8 122.715 136.067C122.851 135.118 122.905 134.158 122.877 133.199C123.285 134.491 123.771 135.826 125.005 136.386C125.657 136.682 126.403 136.66 127.119 136.641C128.662 136.572 130.199 136.413 131.724 136.166C131.818 136.178 131.913 136.167 132.002 136.135C132.091 136.104 132.172 136.051 132.237 135.983C132.302 135.914 132.351 135.832 132.378 135.741C132.406 135.65 132.412 135.555 132.395 135.461L132.412 133.964C132.445 130.923 131.691 128.016 131.397 124.988C131.304 124.034 131.312 123.069 131.079 122.134C130.983 121.741 130.843 121.357 130.758 120.963C130.685 120.576 130.639 120.185 130.621 119.792L130.407 116.775C130.306 115.379 130.16 114.033 130.053 112.639C129.995 111.283 129.798 109.936 129.467 108.619C129.228 107.796 128.732 106.864 127.873 106.763C127.415 106.711 126.971 106.911 126.535 107.051C125.463 107.388 124.313 107.383 123.244 107.037C122.914 106.906 122.57 106.814 122.219 106.763C122.042 106.739 121.862 106.762 121.697 106.83C121.532 106.899 121.388 107.01 121.281 107.152C121.174 107.366 121.124 107.604 121.135 107.843C121.006 110.583 120.768 113.405 120.014 116.067Z" fill="#6C63FF"/>
<path d="M115.601 116.15C114.337 114.817 113.04 113.459 111.411 112.612C110.769 112.277 110.04 112.025 109.329 112.151C108.619 112.277 107.958 112.895 107.991 113.616C108.013 114.063 108.285 114.458 108.37 114.896C108.468 115.39 108.326 115.917 108.479 116.394C108.604 116.708 108.791 116.994 109.028 117.236L110.969 119.537C111.792 120.496 112.615 121.47 113.673 122.134C114.732 122.797 116.103 123.107 117.266 122.635C118.093 122.251 118.781 121.62 119.235 120.828C119.717 120.06 120.058 119.221 120.51 118.429C121.214 117.162 122.144 116.035 123.252 115.102C122.682 114.954 121.966 114.746 121.607 114.279C121.505 114.131 121.417 113.973 121.346 113.808L120.902 112.848C120.751 112.84 120.6 112.863 120.458 112.917C120.317 112.97 120.188 113.052 120.079 113.158C119.889 113.378 119.685 113.586 119.468 113.78C119.081 114.071 118.557 114.151 118.206 114.482C118.071 114.625 117.948 114.779 117.839 114.943C117.573 115.292 117.236 115.58 116.851 115.788C116.465 115.996 116.039 116.12 115.601 116.15Z" fill="#3F3D56"/>
<path d="M123.354 110.415C124.305 108.68 124.262 106.598 124.533 104.637C124.563 104.118 124.745 103.619 125.057 103.203C125.605 102.583 126.573 102.575 127.402 102.655C127.646 102.682 127.95 102.797 127.936 103.041C127.917 103.129 127.874 103.209 127.813 103.274C127.01 104.31 126.538 105.564 126.458 106.872C126.889 107.171 127.555 106.557 127.969 106.872C128.244 107.103 128.117 107.558 127.953 107.887C127.571 108.649 127.177 109.406 126.771 110.158C126.447 110.82 126.024 111.429 125.518 111.965C125.169 112.299 124.761 112.563 124.407 112.892C123.584 113.662 123.088 114.751 122.238 115.502C122.166 115.58 122.069 115.63 121.964 115.642C121.855 115.635 121.753 115.589 121.676 115.513C121.251 115.168 120.899 114.742 120.639 114.26C120.315 113.662 120.365 113.487 120.875 113.065C121.829 112.31 122.759 111.501 123.354 110.415Z" fill="#BE6F72"/>
<path d="M114.011 114.97C114.175 115.072 114.378 115.187 114.559 115.102C114.633 115.057 114.696 114.996 114.743 114.924C115.056 114.505 115.318 114.051 115.522 113.569C115.557 113.501 115.576 113.426 115.579 113.35C115.579 113.174 115.423 113.045 115.278 112.944C114.499 112.447 113.661 112.05 112.785 111.759C112.061 111.485 111.304 111.246 110.536 111.315C110.248 111.334 109.966 111.412 109.708 111.543C109.45 111.674 109.222 111.856 109.036 112.077C108.487 112.782 109.406 112.996 109.982 113.251C111.315 113.857 112.757 114.208 114.011 114.97Z" fill="#6C63FF"/>
<path opacity="0.1" d="M113.147 119.632C113.138 119.695 113.143 119.759 113.163 119.819C113.183 119.879 113.217 119.934 113.262 119.978C113.342 119.589 113.237 119.177 113.32 118.785C113.44 118.195 114.014 117.751 114.063 117.159C113.013 116.953 113.155 118.996 113.147 119.632Z" fill="black"/>
<path opacity="0.2" d="M161.5 98.1873V100.888L150.35 101.566L150.012 98.8619L161.5 98.1873Z" fill="black"/>
<path d="M112.099 102.556C112.796 101.988 112.393 100.798 112.864 100.036C113.139 99.6188 113.602 99.3994 114.057 99.2129C114.607 98.9559 115.195 98.7927 115.799 98.7303C116.101 98.7012 116.406 98.7407 116.691 98.8456C116.975 98.9505 117.233 99.1182 117.444 99.3363C117.622 99.5393 117.743 99.7861 117.91 99.9972C118.117 100.244 118.387 100.429 118.692 100.535C118.996 100.64 119.323 100.661 119.638 100.595C120.003 100.513 120.381 100.236 120.356 99.8629C120.315 99.636 120.199 99.4295 120.027 99.276L119.243 98.4067C118.352 97.4194 117.362 96.3718 116.054 96.125C115.143 95.9523 114.211 96.1963 113.333 96.4898C112.98 96.6077 112.582 96.7832 112.483 97.1424C112.417 97.3893 112.516 97.658 112.458 97.9076C112.346 98.4039 111.71 98.5712 111.414 98.9881C111.117 99.4049 111.208 99.8985 111.123 100.359C111.038 100.82 110.791 101.27 110.761 101.747C110.742 102.035 110.887 102.57 111.211 102.674C111.534 102.778 111.899 102.213 112.099 102.556Z" fill="#3F3D56"/>
<path d="M120.09 99.4679C119.859 98.2614 119.361 97.1219 118.631 96.1332C117.983 95.2095 117.081 94.4932 116.034 94.071C115.511 93.8665 114.949 93.7833 114.389 93.8274C113.829 93.8716 113.286 94.0421 112.801 94.326C112.082 94.8396 111.522 95.5459 111.186 96.3636C110.476 97.8938 110.212 99.7641 111.038 101.234C111.367 100.834 111.932 101.015 112.431 100.869C113.056 100.691 113.586 100.274 114.181 100.014C115.977 99.2211 118.171 99.8628 120.09 99.4679Z" fill="#FED253"/>
<path opacity="0.1" d="M111.457 99.3829C111.394 98.8893 111.353 98.3161 111.704 97.9651C111.722 97.9436 111.744 97.9265 111.769 97.915C111.794 97.9036 111.822 97.8982 111.85 97.8993C111.874 97.9073 111.897 97.9201 111.916 97.9371C111.935 97.9541 111.951 97.9748 111.962 97.998C112.165 98.3178 112.337 98.6556 112.478 99.0072C112.273 98.9601 112.059 98.9754 111.864 99.0512C111.668 99.127 111.5 99.2598 111.381 99.4323" fill="black"/>
<path opacity="0.1" d="M117.866 97.9899L117.768 97.0109C117.752 96.9302 117.758 96.8467 117.787 96.7695C117.828 96.7049 117.892 96.658 117.966 96.6377C118.04 96.6175 118.119 96.6253 118.187 96.6598C118.322 96.7346 118.433 96.8458 118.508 96.9807C118.736 97.3311 118.926 97.7054 119.073 98.0968C118.631 98.0117 118.177 98.0173 117.738 98.1133" fill="black"/>
<path opacity="0.1" d="M120.321 137.724V139.962L118.431 140.088H108.493V137.724H120.321Z" fill="black"/>
<path d="M120.321 137.724V140.088H108.493L77.071 100.727V98.8673H83.6582L120.321 137.724Z" fill="#F1C0C0"/>
<path opacity="0.1" d="M120.321 137.724V140.088H108.493L77.071 100.727V98.8673H83.6582L120.321 137.724Z" fill="black"/>
<path opacity="0.1" d="M120.321 137.724V140.088H108.493L77.071 100.727V98.8673L108.663 137.724H120.321Z" fill="black"/>
<path d="M81.1901 177.175C81.2108 177.287 81.2083 177.401 81.1828 177.511C81.1573 177.621 81.1093 177.725 81.0419 177.816C80.9745 177.907 80.889 177.983 80.7909 178.039C80.6928 178.095 80.5841 178.131 80.4716 178.143C79.7092 178.401 78.9003 178.656 78.36 179.24C77.8198 179.824 77.7128 180.908 78.36 181.382C78.6908 181.582 79.0706 181.685 79.4569 181.681C80.6992 181.766 81.9936 181.75 83.1207 181.223C83.927 180.85 84.6866 180.214 85.5724 180.271C86.0304 180.299 86.5185 180.513 86.9271 180.304C87.3357 180.096 87.4509 179.515 87.4537 179.029C87.4641 178.016 87.3113 177.007 87.0012 176.043C86.96 175.911 85.2159 175.81 85.0075 175.768L82.8931 175.494C82.4927 175.442 81.6289 175.14 81.3135 175.475C80.9982 175.81 81.1901 176.778 81.1901 177.175Z" fill="#6C63FF"/>
<path d="M93.8077 170.33C93.8972 170.824 94.0426 171.306 94.241 171.767C94.5344 172.513 94.9101 173.306 95.6286 173.668C96.2813 173.994 97.0821 173.876 97.7457 173.566C98.0227 173.452 98.2654 173.268 98.4505 173.032C98.6646 172.658 98.7602 172.229 98.7247 171.8C98.7247 170.739 98.6617 169.642 98.1763 168.699C97.7594 167.876 97.0327 167.169 97.0217 166.258L94.5234 166.741C94.3897 166.754 94.2623 166.804 94.156 166.886C94.0768 166.969 94.0218 167.073 93.9969 167.185C93.7302 168.211 93.6659 169.28 93.8077 170.33Z" fill="#6C63FF"/>
<path d="M63.9736 144.278C63.8694 145.161 63.9132 146.107 64.3739 146.87C64.8347 147.632 65.8055 148.136 66.6446 147.832C66.6876 147.821 66.728 147.802 66.7633 147.775C66.7986 147.748 66.8282 147.714 66.8503 147.676C66.8726 147.583 66.8599 147.485 66.8146 147.402C66.4442 146.413 66.4747 145.319 66.8997 144.352C66.9545 144.226 67.0724 144.078 67.2013 144.127C67.2552 144.154 67.2986 144.199 67.3247 144.253C67.4575 144.483 67.5239 144.745 67.5167 145.01C67.478 145.25 67.4706 145.495 67.4947 145.737C67.5469 145.973 67.7991 146.195 68.0185 146.093C68.082 146.054 68.1368 146.003 68.1797 145.942C68.2226 145.881 68.2527 145.812 68.2681 145.74C68.8796 143.971 68.6027 142.037 68.3229 140.186C68.3253 140.144 68.3182 140.101 68.3024 140.062C68.2865 140.022 68.2621 139.987 68.231 139.958C68.1998 139.929 68.1627 139.907 68.1222 139.894C68.0817 139.881 68.0388 139.877 67.9966 139.882C66.7022 139.753 65.9947 139.443 65.2542 140.647C64.618 141.662 63.9736 143.058 63.9736 144.278Z" fill="#6C63FF"/>
<path d="M79.1061 139.778C78.7221 141.374 78.3355 142.989 78.3108 144.629C78.3175 145.651 78.3945 146.67 78.5411 147.681L78.8291 150.056C78.9278 150.857 79.0238 151.655 79.1637 152.448C79.2529 152.856 79.3016 153.272 79.309 153.69C79.2821 154.102 79.2169 154.51 79.1143 154.91C78.9419 155.75 78.8455 156.603 78.8264 157.461C78.7962 158.832 78.9662 160.203 79.0732 161.574C79.2867 164.306 79.2546 167.053 78.9772 169.779C78.8664 170.515 79.0262 171.266 79.4269 171.894C79.5895 172.091 79.7234 172.311 79.8246 172.546C80.0303 173.174 79.5503 173.802 79.4269 174.447C79.348 174.949 79.4717 175.463 79.771 175.874C80.0703 176.285 80.5206 176.561 81.023 176.641C83.2169 176.901 85.4711 176.783 87.4483 177.787C87.6567 177.178 87.2015 176.487 87.4099 175.867C87.5416 175.483 87.9035 175.234 88.1504 174.91C88.4819 174.417 88.6472 173.831 88.622 173.237C88.6317 172.462 88.494 171.693 88.2162 170.969C87.9831 170.366 87.6485 169.771 87.6677 169.124C87.6677 168.806 87.7801 168.471 87.6512 168.178C87.5629 168.009 87.4427 167.859 87.2975 167.736C86.4779 166.838 85.9742 165.697 85.8632 164.486C85.7563 163.285 85.795 162.075 85.9784 160.883C86.1128 159.748 86.2938 158.549 87.015 157.663C86.6806 154.978 86.8772 152.252 87.5937 149.642C87.665 149.401 87.7774 149.121 88.0242 149.063C88.1223 149.053 88.2213 149.067 88.3129 149.103C88.4046 149.14 88.4861 149.197 88.5507 149.272C88.9813 149.675 89.187 150.259 89.3734 150.819C89.5791 151.425 89.7875 152.072 89.6312 152.692C89.5654 152.966 89.4338 153.207 89.357 153.47C89.1902 153.999 89.2194 154.571 89.4393 155.08C89.5465 155.266 89.6137 155.473 89.6367 155.686C89.6113 155.87 89.5557 156.048 89.4722 156.213C89.3705 156.537 89.3382 156.88 89.3774 157.217C89.4166 157.555 89.5264 157.881 89.6998 158.174C90.0493 158.756 90.4806 159.285 90.9805 159.745C90.7417 160.797 90.8034 161.896 91.1587 162.915C91.1844 162.961 91.2007 163.012 91.2068 163.064C91.2129 163.116 91.2087 163.169 91.1944 163.219C91.145 163.324 91.0189 163.362 90.9201 163.436C90.6459 163.661 90.8159 164.086 90.9997 164.38C91.5032 165.185 92.0593 165.956 92.6643 166.689C93.2127 167.344 93.1634 168.608 93.9806 168.844C94.324 168.918 94.6793 168.918 95.0227 168.844C95.829 168.721 96.7284 168.488 97.1233 167.775C97.2851 167.481 97.351 167.125 97.6033 166.905C97.8556 166.686 98.1819 166.647 98.3218 166.384C98.4616 166.121 98.3053 165.775 98.3519 165.471C98.3985 165.167 98.6645 164.922 98.7496 164.602C98.9525 163.861 98.0887 163.252 97.9707 162.496C97.8007 161.399 99.1828 160.576 99.1253 159.479C99.0046 157.096 98.9278 154.702 98.8044 152.319C98.6495 150.184 98.6276 148.042 98.7386 145.904C98.8346 144.574 99.0128 143.181 98.5247 141.944C97.8226 140.2 95.8865 139.221 94.0135 139.035C92.1405 138.848 90.2729 139.292 88.4164 139.583C85.3351 140.058 82.2045 140.123 79.1061 139.778Z" fill="#3F3D56"/>
<path d="M84.673 113.566C87.0994 113.566 89.0663 111.599 89.0663 109.173C89.0663 106.747 87.0994 104.78 84.673 104.78C82.2467 104.78 80.2798 106.747 80.2798 109.173C80.2798 111.599 82.2467 113.566 84.673 113.566Z" fill="#FBBEBE"/>
<path d="M82.885 114.386C82.7357 114.734 82.4848 115.028 82.1652 115.23C81.8455 115.432 81.4722 115.533 81.0942 115.519C80.9352 116.177 81.3164 116.841 81.7524 117.359C82.6578 118.413 83.8279 119.206 85.142 119.656C86.456 120.107 87.8665 120.199 89.228 119.923C89.7579 119.828 90.2605 119.619 90.7007 119.309C91.2941 118.813 91.6925 118.123 91.8251 117.362C91.9513 116.605 91.9872 115.837 91.932 115.072C91.9474 114.921 91.9042 114.77 91.8113 114.65C91.7017 114.565 91.5661 114.52 91.4274 114.523C90.5005 114.441 89.5325 114.406 88.718 113.95C87.9035 113.495 87.3249 112.467 87.717 111.622C87.6539 111.754 86.0524 111.817 85.8412 111.844C85.1803 111.937 84.5194 112.042 83.8613 112.162C83.545 112.18 83.2324 112.239 82.9316 112.338C82.534 112.543 82.682 112.442 82.7753 112.815C82.9151 113.385 83.1208 113.794 82.885 114.386Z" fill="#FBBEBE"/>
<path d="M86.2279 117.057C85.6363 117.064 85.046 116.999 84.4701 116.863C83.8887 116.727 83.3762 116.385 83.0276 115.9C82.8247 115.593 82.6931 115.206 82.3695 115.034C81.8402 114.759 81.2369 115.223 80.8145 115.648C80.43 116.067 79.9844 116.426 79.4927 116.712C78.9059 117.022 78.2203 117.131 77.6663 117.496C77.2336 117.823 76.8622 118.224 76.5694 118.681L72.6835 123.974C71.1231 126.102 69.7656 128.386 68.3752 130.632C67.1713 132.576 66.5406 134.814 65.6329 136.912C65.561 137.04 65.5312 137.188 65.5479 137.334C65.5808 137.477 65.7535 137.592 65.8742 137.51C65.4656 137.916 65.8248 138.607 65.7289 139.177C65.6197 139.576 65.3922 139.933 65.0762 140.2C65.6798 140.121 66.2926 140.15 66.8861 140.285C67.4996 140.459 68.0785 140.737 68.5974 141.108C68.9292 141.056 68.899 140.466 69.1458 140.247C69.2939 140.118 69.5133 140.134 69.708 140.096C70.4402 139.953 70.7309 139.073 71.2931 138.577C71.762 138.163 72.4257 138.028 72.922 137.639C73.7283 137.005 73.9011 135.878 74.3234 134.943C74.6826 134.151 75.2476 133.459 75.5629 132.648C75.7686 132.121 75.8673 131.551 76.1608 131.065C76.6297 130.281 77.5127 129.864 78.3547 129.489C78.8867 129.25 79.4516 129.003 80.0247 129.042C79.9946 130.317 79.8328 131.573 80.1098 132.818C80.2057 133.257 80.3401 133.684 80.4553 134.12C80.9791 136.084 81.1025 138.13 81.1272 140.154C82.3872 139.865 83.6741 139.711 84.9665 139.693C85.9839 139.663 86.9986 139.794 88.016 139.775C89.2226 139.753 90.4155 139.52 91.6222 139.438C92.8288 139.356 94.0903 139.438 95.1571 139.986C95.0704 138.248 95.119 136.506 95.3024 134.776L95.5931 132.05C95.6587 131.258 95.7806 130.472 95.9578 129.697C96.1169 129.072 96.3472 128.468 96.5228 127.846C97.1398 125.652 97.0273 123.31 96.9094 121.026C96.8491 119.852 96.3966 118.697 95.8646 117.653C95.672 117.264 95.4521 116.891 95.2064 116.534C94.5635 115.648 93.7068 114.939 92.716 114.474C91.7253 114.009 90.6329 113.802 89.5407 113.874C89.4012 113.878 89.2637 113.908 89.1348 113.961C88.9034 114.11 88.7226 114.325 88.6165 114.578C88.0492 115.598 87.2259 116.453 86.2279 117.057Z" fill="#3F3D56"/>
<path d="M80.8089 110.629C80.9323 110.355 81.2641 110.254 81.4671 110.034C81.8565 109.617 81.681 108.951 81.7413 108.389C81.84 107.566 82.5229 106.878 83.3044 106.584C84.1015 106.329 84.9496 106.275 85.7725 106.428C86.1687 106.457 86.5514 106.584 86.886 106.798C87.0286 106.902 87.1602 107.037 87.2946 107.133C87.5395 107.281 87.8326 107.327 88.1114 107.262C88.3901 107.197 88.6323 107.026 88.7864 106.785C87.8156 105.616 86.7406 104.382 85.2652 104.023C84.7591 103.92 84.2433 103.871 83.7268 103.878C83.0439 103.864 82.3391 103.853 81.7084 104.113C80.85 104.467 80.2467 105.282 79.9368 106.159C79.6658 107.049 79.5209 107.972 79.5063 108.902C79.4501 109.522 79.4501 110.146 79.5063 110.766C79.6123 111.614 79.927 112.421 80.4222 113.117C80.4892 113.225 80.5839 113.313 80.6965 113.372C81.947 113.92 80.7074 110.857 80.8089 110.629Z" fill="#3F3D56"/>
<path d="M88.6438 106.107C88.4929 104.816 87.5715 103.749 86.5925 102.89C85.8034 102.146 84.8635 101.58 83.8364 101.231C82.8026 100.927 81.6124 100.993 80.7266 101.61C80.0136 102.106 79.5611 102.896 79.2128 103.691C78.7553 104.63 78.5287 105.664 78.5519 106.708C78.6205 107.744 79.1251 108.795 80.0246 109.318C80.3482 108.841 80.9103 108.595 81.4506 108.4C83.8052 107.506 86.2065 106.741 88.6438 106.107Z" fill="#FED253"/>
<path opacity="0.1" d="M80.3263 105.57C80.4141 105.57 80.4717 105.66 80.5156 105.734C80.7388 106.082 80.9306 106.449 81.0887 106.831C80.7679 106.9 80.2166 106.977 80.0576 106.694C79.9726 106.551 80.074 105.556 80.3263 105.57Z" fill="black"/>
<path opacity="0.1" d="M86.5762 104.95C86.5104 105.013 86.4336 104.884 86.4336 104.791V103.727C86.4318 103.697 86.4385 103.668 86.4528 103.642C86.4642 103.629 86.4781 103.618 86.4936 103.611C86.5092 103.603 86.5261 103.599 86.5433 103.598C86.7655 103.573 86.9492 103.762 87.0918 103.943C87.3082 104.237 87.4964 104.55 87.654 104.879L86.494 104.843" fill="black"/>
<path d="M101.053 122.57C101.305 122.33 101.575 122.109 101.859 121.909C102.619 121.401 103.537 121.201 104.39 120.878C105.243 120.554 106.11 120.03 106.442 119.18C106.608 118.648 106.662 118.088 106.601 117.535C106.609 117.303 106.568 117.072 106.48 116.857C106.376 116.667 106.227 116.506 106.047 116.386C104.889 115.53 103.337 115.461 101.9 115.549C98.7322 115.746 95.6269 116.521 92.7381 117.836C92.5853 117.887 92.4515 117.982 92.3542 118.11C92.2979 118.229 92.2725 118.36 92.2801 118.492C92.229 119.3 92.3342 120.111 92.59 120.88C92.9685 121.857 93.7473 122.644 94.0736 123.639C94.2217 124.086 94.2711 124.56 94.4 125.01C94.5057 125.475 94.7804 125.883 95.1706 126.157C96.2538 126.804 97.2767 125.934 98.0281 125.26L101.053 122.57Z" fill="#3F3D56"/>
<path d="M86.8669 126.368L85.4766 123.335C85.2727 122.914 85.0968 122.481 84.95 122.037C84.791 121.508 84.7142 120.96 84.5661 120.428C84.078 118.656 82.8466 117.181 82.2461 115.445C82.2081 115.288 82.1307 115.144 82.0212 115.025C81.9335 114.963 81.8333 114.921 81.7276 114.902C81.6219 114.883 81.5134 114.888 81.4097 114.916C80.5705 115.061 79.9151 115.7 79.1472 116.062C78.7907 116.226 78.4068 116.336 78.0503 116.525C77.8721 116.61 77.7142 116.732 77.5873 116.883C77.4605 117.034 77.3677 117.21 77.3153 117.4C77.2303 117.82 77.4387 118.223 77.6142 118.631C78.3601 120.315 78.5302 122.197 78.5631 124.039C78.5878 125.279 78.5247 126.609 77.7925 127.604C76.3857 129.524 77.2851 132.343 77.8117 134.666C77.8748 134.94 77.9488 135.236 77.9927 135.527C78.0391 135.891 78.0602 136.257 78.0557 136.624C78.0557 137.855 77.9872 139.125 77.4716 140.241C77.9806 140.512 78.5416 140.671 79.117 140.707C80.7094 140.91 82.3082 141.053 83.9134 141.135C84.4163 141.183 84.9235 141.157 85.419 141.058C86.0074 140.899 86.5261 140.549 86.8931 140.062C87.2601 139.576 87.4545 138.98 87.4456 138.371C87.5333 139.131 87.6951 139.956 88.2463 140.483C88.7976 141.009 89.6011 141.089 90.3497 141.13C92.4627 141.242 94.5812 141.182 96.6846 140.952C96.8188 140.945 96.9508 140.915 97.074 140.861C97.4798 140.658 97.5018 140.099 97.4689 139.649C97.4085 138.807 97.3455 137.965 97.244 137.129C97.158 136.595 97.114 136.056 97.1124 135.516C97.1542 134.961 97.246 134.41 97.3866 133.871C97.7541 132.16 98.0448 130.413 97.9214 128.66C97.8726 128.233 97.8552 127.804 97.8693 127.374C97.9406 126.406 98.4506 125.485 98.3547 124.522C98.0804 121.692 97.8583 118.788 97.0685 116.056C96.9259 115.568 96.7449 115.044 96.3198 114.765C95.7714 114.397 95.0008 114.589 94.3728 114.356C94.0781 114.219 93.7979 114.053 93.5363 113.86C92.9681 113.504 92.3166 113.304 91.6469 113.278C91.1423 113.259 90.5801 113.372 90.2757 113.778C90.1347 114.006 90.0414 114.261 90.0014 114.526C89.6038 116.199 89.1376 117.853 88.6714 119.506L88.2244 121.091L87.026 125.348C86.9081 125.8 86.9876 125.94 86.8669 126.368Z" fill="#6C63FF"/>
<path d="M93.879 109.763L120.406 137.639V140.003H108.578L88.6438 113.986" fill="#F1C0C0"/>
<path opacity="0.1" d="M93.879 109.763L120.406 137.639V140.003H108.578L88.6438 113.986" fill="black"/>
<path opacity="0.1" d="M89.0661 113.619L89.1511 113.649L108.748 137.639H120.406V140.003H108.578L88.6438 113.986L89.0661 113.619Z" fill="black"/>
<path d="M92.1184 114.205C91.1585 114.625 90.0918 115.162 89.8038 116.172C89.747 116.349 89.7347 116.537 89.7682 116.72C89.8383 116.935 89.9721 117.124 90.1517 117.262C90.3314 117.399 90.5486 117.479 90.7746 117.491C91.2262 117.502 91.6752 117.42 92.0937 117.249L97.7566 115.379C97.9102 115.33 98.0857 115.256 98.1241 115.105C98.134 115.01 98.1149 114.914 98.0693 114.831C97.8938 114.403 97.721 113.528 97.3535 113.229C97.0519 112.988 96.454 113.073 96.0893 113.078C94.6852 113.089 93.3661 113.657 92.1184 114.205Z" fill="#6C63FF"/>
<path d="M97.1671 115.601C98.1212 115.598 99.0697 115.746 99.9781 116.037C100.89 116.333 101.699 116.886 102.306 117.628C102.483 117.835 102.609 118.081 102.674 118.346C102.729 118.62 103.623 118.785 103.425 118.972C104.026 118.876 103.883 119.158 104.492 119.153C105.101 119.147 105.759 118.991 106.124 118.505C106.377 118.107 106.49 117.635 106.445 117.164C106.453 116.839 106.391 116.515 106.264 116.215C105.989 115.64 105.359 115.33 104.777 115.064L99.8793 112.823C99.5952 112.672 99.2902 112.564 98.9744 112.502C98.7085 112.477 98.4406 112.484 98.1763 112.521L95.9578 112.777C96.4429 113.091 96.8379 113.525 97.1039 114.039C97.3698 114.552 97.4975 115.125 97.4743 115.703" fill="#3F3D56"/>
</g>
<defs>
<clipPath id="clip0_19_54">
<rect width="323" height="198.675" fill="white"/>
</clipPath>
</defs>
</svg>
