<svg xmlns="http://www.w3.org/2000/svg" version="1.1" xmlns:xlink="http://www.w3.org/1999/xlink" xmlns:svgjs="http://svgjs.com/svgjs" width="512" height="512" x="0" y="0" viewBox="0 0 512 512" style="enable-background:new 0 0 512 512" xml:space="preserve" class=""><g><path d="m357.979 112.084h-75.719c-38.869-42.505-19.862-86.782 11.013-73.565 0 0-2.658-38.127 26.404-38.508.144-.011.288-.011.443-.011 29.535 0 26.847 38.518 26.847 38.518 30.884-13.217 49.881 31.06 11.012 73.566z" fill="#f6f1f1" data-original="#f6f1f1" class=""></path><path d="m314.711 112.084h-32.451c-38.869-42.505-19.862-86.782 11.013-73.565 0 0-2.658-38.127 26.404-38.508-20.388 1.102-10.374 78.128-4.966 112.073z" fill="#eadfda" data-original="#eadfda"></path><path d="m480.128 291.638c0-88.37-71.638-192.113-160.007-192.113s-160.008 103.744-160.008 192.113 71.638 127.902 160.008 127.902 160.007-39.532 160.007-127.902z" fill="#f6f1f1" data-original="#f6f1f1" class=""></path><path d="m320.12 419.541c-88.369 0-160.008-39.538-160.008-127.907s71.639-192.108 160.008-192.108c-44.473 0-80.519 103.739-80.519 192.108s36.046 127.907 80.519 127.907z" fill="#eadfda" data-original="#eadfda"></path><path d="m498.231 368.831h-.009l-132.889 106.596c-10.921 8.761-24.934 12.751-38.84 11.054l-179.104-21.797-47.722 17.653c-25.636-26.365-15.101-106.044-15.101-106.044l11.365-8.261c-.986-15.186 6.176-30.265 19.469-38.894 1.466-.96 3.003-1.83 4.621-2.621l76.801-37.507 39.498-19.291c2.151-1.049 4.345-1.875 6.576-2.479 16.51-4.523 34.433 2.737 42.883 18.305 9.588 17.674 3.545 39.764-13.702 50.099l-63.845 38.263 107.439 18.714c12.929 2.248 26.231-.471 37.25-7.624l106.853-69.363c14.333-9.312 33.402-6.078 43.879 7.438 2.71 3.501 4.612 7.384 5.722 11.418 3.358 12.26-.614 25.891-11.144 34.341z" fill="#f1d0a5" data-original="#f1d0a5"></path><path d="m326.2 457.85c-73.577 9.557-124.303-33.589-154.991-74.181-15.217-20.128-10.086-48.916 11.157-62.533 74.092-47.493 93.257-45.748 103.413-35.592-8.451-15.568-26.374-22.828-42.883-18.305-2.23.604-4.425 1.431-6.576 2.479l-39.498 19.291-62.249 30.401s-.006.01-.008.012l-14.544 7.095c-16.235 7.926-25.183 24.65-24.09 41.515l-33.175 8.356s11.276 79.584 36.912 105.949l47.722-17.653 179.104 21.797c13.907 1.697 27.92-2.293 38.84-11.054l132.888-106.595c-45.922-12.459-122.465 81.439-172.022 89.018z" fill="#f1b986" data-original="#f1b986"></path><path d="m243.963 333.609c-6.327 0-12.467-3.071-16.214-8.668-8.257-12.33-10.694-24.679-10.794-25.198-.805-4.191 1.941-8.24 6.132-9.044 4.168-.802 8.225 1.931 9.039 6.11.034.169 2.043 9.949 8.462 19.534 1.155 1.722 3.519 2.293 5.391 1.295l9.577-5.108c3.767-2.009 8.446-.583 10.453 3.182 2.008 3.765.585 8.445-3.181 10.453l-9.577 5.108c-2.962 1.579-6.149 2.336-9.288 2.336z" fill="#f1b986" data-original="#f1b986"></path><ellipse cx="59.473" cy="436.231" fill="#df6b57" rx="47.963" ry="96.693" transform="matrix(.943 -.333 .333 .943 -141.942 44.738)" data-original="#df6b57" class=""></ellipse><path d="m114.231 489.398c-19.646 12.269-40.96 19.8-63.954 22.602-4.564-10.982-8.963-22.015-13.207-33.1 23.952-2.957 46.193-10.734 66.725-23.344 3.636 11.229 7.118 22.51 10.436 33.842z" fill="#da387d" data-original="#da387d" class=""></path><path d="m72.142 485.545c-4.49 0-8.545-3.03-9.849-7.314-1.27-4.173.308-8.818 3.851-11.364 3.349-2.407 7.924-2.531 11.426-.372 3.609 2.225 5.513 6.599 4.678 10.758-.955 4.754-5.252 8.292-10.106 8.292z" fill="#ffffff" data-original="#ffffff" class=""></path><path d="m386.731 238.225c-3.367-1.19-6.471-2.33-9.338-3.43v-47.299c8.62 1.506 13.789 5.955 14.168 6.291 3.139 2.851 7.994 2.641 10.874-.481 2.893-3.137 2.696-8.025-.441-10.918-.528-.487-9.671-8.715-24.602-10.506v-10.441c0-4.267-3.459-7.726-7.726-7.726-4.268 0-7.726 3.459-7.726 7.726v11.055c-1.752.342-3.545.774-5.385 1.329-12.788 3.852-22.347 14.814-24.947 28.608-2.36 12.525 1.617 24.575 10.378 31.447 4.979 3.905 11.237 7.479 19.954 11.295v58.811c-8.462-.389-13.763-2.032-22.922-8.022-3.572-2.336-8.358-1.335-10.695 2.236-2.336 3.571-1.335 8.359 2.236 10.695 12.189 7.974 20.363 10.092 31.38 10.543v11.658c0 4.267 3.459 7.726 7.726 7.726 4.268 0 7.726-3.459 7.726-7.726v-12.213c21.014-3.504 33.279-20.551 35.954-36.46 3.355-19.948-7.092-37.297-26.614-44.198zm-35.207-16.503c-4.205-3.298-6.017-9.592-4.729-16.426 1.196-6.351 5.56-14.066 14.217-16.674.313-.094.619-.173.929-.258v39.749c-4.301-2.168-7.7-4.26-10.417-6.391zm46.583 58.141c-1.625 9.666-8.678 19.976-20.714 23.201v-51.774c1.357.495 2.743.995 4.187 1.505 18.461 6.525 17.318 22.368 16.527 27.068z" fill="#736e6e" data-original="#736e6e"></path><circle cx="133.806" cy="151.268" fill="#df6b57" r="124.617" data-original="#df6b57" class=""></circle><path d="m78.902 239.385c20.099 20.099 45.359 31.894 71.505 35.387-37.169 4.976-76.151-6.82-104.718-35.387-48.666-48.666-48.666-127.567 0-176.233 28.567-28.567 67.549-40.362 104.718-35.387-26.146 3.492-51.406 15.288-71.505 35.387-48.666 48.666-48.666 127.567 0 176.233z" fill="#da387d" data-original="#da387d" class=""></path><path d="m133.807 283.611c-35.35 0-68.585-13.766-93.581-38.763-24.996-24.996-38.763-58.23-38.763-93.58s13.767-68.585 38.763-93.581c24.997-24.996 58.231-38.762 93.581-38.762s68.585 13.766 93.58 38.762 38.762 58.231 38.762 93.581-13.766 68.584-38.762 93.58c-24.996 24.997-58.23 38.763-93.58 38.763zm0-249.234c-31.222 0-60.576 12.159-82.654 34.236-22.078 22.078-34.237 51.432-34.237 82.654s12.159 60.576 34.237 82.654c22.077 22.078 51.432 34.236 82.654 34.236s60.576-12.159 82.653-34.236c22.078-22.078 34.236-51.431 34.236-82.654s-12.158-60.576-34.236-82.654c-22.077-22.077-51.431-34.236-82.653-34.236z" fill="#da387d" data-original="#da387d" class=""></path><g fill="#fff"><path d="m106.377 225.08c-.997 0-2.01-.194-2.987-.604-3.935-1.651-5.786-6.18-4.135-10.114l56.685-135.069c1.652-3.935 6.181-5.784 10.115-4.135 3.935 1.651 5.786 6.18 4.135 10.114l-56.685 135.068c-1.242 2.959-4.11 4.74-7.128 4.74z" fill="#ffffff" data-original="#ffffff" class=""></path><path d="m95.529 141.925c-18.071 0-32.774-16.523-32.774-36.831s14.702-36.831 32.774-36.831c18.07 0 32.773 16.523 32.773 36.831s-14.703 36.831-32.773 36.831zm0-58.21c-9.55 0-17.321 9.591-17.321 21.379s7.771 21.379 17.321 21.379 17.32-9.591 17.32-21.379-7.77-21.379-17.32-21.379z" fill="#ffffff" data-original="#ffffff" class=""></path><path d="m172.084 234.273c-18.07 0-32.773-16.523-32.773-36.831 0-20.309 14.702-36.832 32.773-36.832s32.773 16.523 32.773 36.832-14.702 36.831-32.773 36.831zm0-58.21c-9.55 0-17.32 9.591-17.32 21.379s7.77 21.379 17.32 21.379 17.32-9.591 17.32-21.379c0-11.789-7.769-21.379-17.32-21.379z" fill="#ffffff" data-original="#ffffff" class=""></path></g></g></svg>