<svg xmlns="http://www.w3.org/2000/svg" version="1.1" xmlns:xlink="http://www.w3.org/1999/xlink" xmlns:svgjs="http://svgjs.com/svgjs" width="512" height="512" x="0" y="0" viewBox="0 0 32 32" style="enable-background:new 0 0 512 512" xml:space="preserve" class="__web-inspector-hide-shortcut__"><g><path d="m12 3h-6a3 3 0 0 0 -3 3v6a3 3 0 0 0 3 3h6a3 3 0 0 0 3-3v-6a3 3 0 0 0 -3-3zm1 9a1 1 0 0 1 -1 1h-6a1 1 0 0 1 -1-1v-6a1 1 0 0 1 1-1h6a1 1 0 0 1 1 1z" fill="#000000" data-original="#000000" class=""></path><path d="m26 3h-6a3 3 0 0 0 -3 3v6a3 3 0 0 0 3 3h6a3 3 0 0 0 3-3v-6a3 3 0 0 0 -3-3zm1 9a1 1 0 0 1 -1 1h-6a1 1 0 0 1 -1-1v-6a1 1 0 0 1 1-1h6a1 1 0 0 1 1 1z" fill="#000000" data-original="#000000" class=""></path><path d="m12 17h-6a3 3 0 0 0 -3 3v6a3 3 0 0 0 3 3h6a3 3 0 0 0 3-3v-6a3 3 0 0 0 -3-3zm1 9a1 1 0 0 1 -1 1h-6a1 1 0 0 1 -1-1v-6a1 1 0 0 1 1-1h6a1 1 0 0 1 1 1z" fill="#000000" data-original="#000000" class=""></path><path d="m28 22h-4v-4a1 1 0 0 0 -2 0v4h-4a1 1 0 0 0 0 2h4v4a1 1 0 0 0 2 0v-4h4a1 1 0 0 0 0-2z" fill="#000000" data-original="#000000" class=""></path></g></svg>