<svg xmlns="http://www.w3.org/2000/svg" version="1.1" xmlns:xlink="http://www.w3.org/1999/xlink" xmlns:svgjs="http://svgjs.com/svgjs" width="512" height="512" x="0" y="0" viewBox="0 0 58 60" style="enable-background:new 0 0 512 512" xml:space="preserve" class=""><g><g id="Page-1" fill="none" fill-rule="evenodd"><g id="005---Cash-Approved" fill-rule="nonzero"><path id="Shape" d="m27 19.5c0 1.6568542 1.3431458 3 3 3s3-1.3431458 3-3c0-6.58-5.61-12.06-13-13.25v-2.25c0-1.65685425-1.3431458-3-3-3s-3 1.34314575-3 3v2.25c-7.39 1.19-13 6.67-13 13.25s5.61 12.06 13 13.25v14.9c-4.05-.95-7-3.8-7-7.15 0-1.6568542-1.34314575-3-3-3s-3 1.3431458-3 3c0 6.58 5.61 12.06 13 13.25v2.25c0 1.6568542 1.3431458 3 3 3s3-1.3431458 3-3v-2.25c4.4467223-.6127527 8.4348699-3.0563995 11-6.74v-13.02c-2.5659864-3.6826924-6.5536979-6.126072-11-6.74v-14.9c4.05.95 7 3.8 7 7.15zm-13 7.15c-4.05-.95-7-3.8-7-7.15s2.95-6.2 7-7.15zm13 13.85c0 3.35-2.95 6.2-7 7.15v-14.3c4.05.95 7 3.8 7 7.15z" fill="#ffdc00" data-original="#ffdc00" class=""></path><path id="Shape" d="m50 48c-.0032948 1.1032019-.8967981 1.9967052-2 2h-15c-1.1032019-.0032948-1.9967052-.8967981-2-2v-15c.0032948-1.1032019.8967981-1.9967052 2-2h15c1.1045695 0 2 .8954305 2 2z" fill="#60a917" data-original="#60a917"></path><path id="Shape" d="m48 31h-3c1.1045695 0 2 .8954305 2 2v15c-.0032948 1.1032019-.8967981 1.9967052-2 2h3c1.1032019-.0032948 1.9967052-.8967981 2-2v-15c0-1.1045695-.8954305-2-2-2z" fill="#549414" data-original="#549414"></path><g fill="#000"><path id="Shape" d="m8 40.5c0-2.209139-1.790861-4-4-4s-4 1.790861-4 4c0 6.713 5.417 12.522 13 14.083v1.417c0 2.209139 1.790861 4 4 4s4-1.790861 4-4v-1.416c2.6009368-.5209646 5.0553314-1.6080132 7.189-3.184.4418278-.3313708.5313708-.9581722.2-1.4s-.9581722-.5313708-1.4-.2c-2.1086839 1.5499584-4.5611573 2.5665614-7.148 2.963-.4845598.0780377-.8408633.4961965-.841.987v2.25c0 1.1045695-.8954305 2-2 2s-2-.8954305-2-2v-2.25c-.0001367-.4908035-.3564402-.9089623-.841-.987-7.045-1.135-12.159-6.292-12.159-12.263 0-1.1045695.8954305-2 2-2s2 .8954305 2 2c0 3.769 3.123 7.033 7.771 8.124.297471.0699806.6106123.0001025.8501114-.1897039.2394991-.1898065.3790639-.4787044.3788886-.7842961v-14.9c-.0001367-.4908035-.3564402-.9089623-.841-.987-7.045-1.135-12.159-6.292-12.159-12.263s5.114-11.128 12.159-12.263c.4845598-.07803775.8408633-.49619646.841-.987v-2.25c0-1.1045695.8954305-2 2-2s2 .8954305 2 2v2.25c.0001367.49080354.3564402.90896225.841.987 7.045 1.135 12.159 6.292 12.159 12.263 0 1.1045695-.8954305 2-2 2s-2-.8954305-2-2c0-3.769-3.123-7.033-7.771-8.124-.297471-.0699806-.6106123-.0001025-.8501114.1897039-.2394991.1898065-.3790639.4787044-.3788886.7842961v14.9c.0002157.4911261.3570428.9094021.842.987 2.5868427.3964386 5.0393161 1.4130416 7.148 2.963.2858125.2143594.6642734.2599564.9928203.1196152.3285469-.1403411.5572656-.4452994.6-.8.0427344-.3547005-.1070078-.7052558-.3928203-.9196152-2.1339632-1.57612-4.588713-2.6631747-7.19-3.184v-12.728c3 1.087 5 3.357 5 5.812 0 2.209139 1.790861 4 4 4s4-1.790861 4-4c0-6.713-5.417-12.522-13-14.083v-1.417c0-2.209139-1.790861-4-4-4s-4 1.790861-4 4v1.417c-7.583 1.561-13 7.37-13 14.083s5.417 12.522 13 14.083v12.729c-3-1.087-5-3.357-5-5.812z" fill="#000000" data-original="#000000" class=""></path><path id="Shape" d="m13.771 11.376c-4.648 1.091-7.771 4.355-7.771 8.124s3.123 7.033 7.771 8.124c.0751494.0170352.1519444.0257543.229.026.5522847 0 1-.4477153 1-1v-14.3c.0001753-.3055917-.1393895-.5944896-.3788886-.7842961-.2394991-.1898064-.5526404-.2596845-.8501114-.1897039zm-.771 13.936c-3-1.087-5-3.357-5-5.812s2-4.725 5-5.812z" fill="#000000" data-original="#000000" class=""></path><path id="Shape" d="m20.229 32.376c-.297471-.0699806-.6106123-.0001025-.8501114.1897039-.2394991.1898065-.3790639.4787044-.3788886.7842961v14.3c0 .5522847.4477153 1 1 1 .0770556-.0002457.1538506-.0089648.229-.026 4.648-1.091 7.771-4.355 7.771-8.124s-3.123-7.033-7.771-8.124zm.771 13.936v-11.624c3 1.087 5 3.357 5 5.812s-2 4.725-5 5.812z" fill="#000000" data-original="#000000" class=""></path><path id="Shape" d="m30 33v15c0 1.6568542 1.3431458 3 3 3h15c1.6568542 0 3-1.3431458 3-3v-6.34c0-.5522847-.4477153-1-1-1s-1 .4477153-1 1v6.34c0 .5522847-.4477153 1-1 1h-15c-.5522847 0-1-.4477153-1-1v-15c0-.5522847.4477153-1 1-1h16c.5522847 0 1-.4477153 1-1s-.4477153-1-1-1h-16c-1.6568542 0-3 1.3431458-3 3z" fill="#000000" data-original="#000000" class=""></path><path id="Shape" d="m56.293 28.293-16.293 16.293-4.293-4.293c-.3923789-.3789722-1.0160848-.3735524-1.4018186.0121814s-.3911536 1.0094397-.0121814 1.4018186l5 5c.3904999.3903819 1.0235001.3903819 1.414 0l17-17c.3789722-.3923789.3735524-1.0160848-.0121814-1.4018186s-1.0094397-.3911536-1.4018186-.0121814z" fill="#000000" data-original="#000000" class=""></path></g></g></g></g></svg>