<svg xmlns="http://www.w3.org/2000/svg" version="1.1" xmlns:xlink="http://www.w3.org/1999/xlink" xmlns:svgjs="http://svgjs.com/svgjs" width="512" height="512" x="0" y="0" viewBox="0 0 32 32" style="enable-background:new 0 0 512 512" xml:space="preserve" class=""><g><g id="trade_transaction_payment_trading" data-name="trade, transaction, payment, trading"><path d="m26.707 13.293-4-4a1 1 0 0 0 -1.414 1.414l2.2929 2.293h-13.5859a1 1 0 0 0 0 2h16a1 1 0 0 0 .707-1.707z" fill="#b78484" data-original="#000000" class=""></path><path d="m22 17h-16a1 1 0 0 0 -.707 1.707l4 4a1 1 0 0 0 1.414-1.414l-2.2929-2.293h13.5859a1 1 0 0 0 0-2z" fill="#b78484" data-original="#000000" class=""></path></g></g></svg>